<svg xmlns="http://www.w3.org/2000/svg" viewBox="0 0 32 32">
  <defs>
    <linearGradient id="bg" x1="0%" y1="0%" x2="100%" y2="100%">
      <stop offset="0%" style="stop-color:#6366f1"/>
      <stop offset="100%" style="stop-color:#4f46e5"/>
    </linearGradient>
  </defs>
  <rect width="32" height="32" rx="6" fill="url(#bg)"/>
  <path d="M22 13H10m12 0a1.5 1.5 0 011.5 1.5v5a1.5 1.5 0 01-1.5 1.5H10a1.5 1.5 0 01-1.5-1.5v-5A1.5 1.5 0 0110 13m12 0v-1.5a1.5 1.5 0 00-1.5-1.5M10 13v-1.5a1.5 1.5 0 011.5-1.5m0 0V8.5A1.5 1.5 0 0113 7h6a1.5 1.5 0 011.5 1.5V10m-9 0h9" 
        stroke="white" 
        stroke-width="1.5" 
        stroke-linecap="round" 
        stroke-linejoin="round" 
        fill="none"/>
</svg>
